<svg width="539.903" height="122.021" xmlns="http://www.w3.org/2000/svg" viewBox="-19.951 13.989 539.903 122.021" style="background:0 0" preserveAspectRatio="xMidYMid"><defs><linearGradient id="editing-gradow-gradient" x1=".199" x2=".801" y1=".101" y2=".899" gradientUnits="objectBoundingBox"><stop offset="0"/><stop offset="1" stop-color="#009696"/></linearGradient><filter id="editing-gradow-filter" x="-100%" y="-100%" width="300%" height="300%"><feFlood flood-color="#cde9f1" result="flood"/><feComposite operator="in" in2="SourceAlpha" in="flood" result="shadow"/><feOffset dx="-1.6" dy="-2.8" in="SourceGraphic" result="offset-1"/><feOffset dx="1.6" dy="2.8" in="shadow" result="offset-2"/><feMerge><feMergeNode in="offset-2"/><feMergeNode in="offset-1"/></feMerge></filter></defs><g filter="url(#editing-gradow-filter)"><path d="M7.68 0H.64l7.68-42.24h13.76l9.98 29.06 5.32-29.06 7.1.06L36.67 0H22.02L12.8-27.97 7.68 0zm53.76-3.52q-1.98 4.8-8.32 4.8-3.26 0-5.31-2.24-1.73-1.98-1.73-3.97 0-5.18 2.37-15.29l2.37-12.42 12.99-1.28L59.9-13.7q-1.08 4.74-1.08 6.4 0 3.65 2.62 3.78zm-9.47-38.02q0-2.49 2.08-3.84 2.08-1.34 5.09-1.34 3 0 4.83 1.34 1.82 1.35 1.82 3.84 0 2.5-2.01 3.78-2.02 1.28-5.03 1.28-3.01 0-4.89-1.28-1.89-1.28-1.89-3.78zm31.42 11.2q3.46-3.58 10.75-3.58 4.04 0 6.24 2.14 2.21 2.15 2.21 6.08 0 3.94-2.21 6.72-2.2 2.79-6.3 3.94.32 1.28.77 2.62l.89 2.56q1.22 3.27 2.18 4.42.96 1.15 2.24 1.54-.7 2.62-3.26 4.03-2.05 1.15-4.87 1.15-8.25 0-9.34-12.74-.19-1.79-.19-3.58 3.2-.9 5.44-3.9 2.24-3.01 2.24-6.53 0-3.52-2.5-3.52-1.79 0-3.2 1.98-1.41 1.99-2.05 5.38L78.21 0 65.28 1.28l8.96-46.08 12.86-1.28-1.47 7.62q-.96 5.37-2.24 8.12zM120.9-3.52q-1.99 4.8-8.32 4.8-3.27 0-5.32-2.24-1.72-1.98-1.72-3.97 0-5.18 2.36-15.29l2.37-12.42 12.99-1.28-3.9 20.22q-1.09 4.74-1.09 6.4 0 3.65 2.63 3.78zm-9.48-38.02q0-2.49 2.08-3.84 2.08-1.34 5.09-1.34t4.83 1.34q1.83 1.35 1.83 3.84 0 2.5-2.02 3.78-2.01 1.28-5.02 1.28t-4.9-1.28q-1.89-1.28-1.89-3.78zM127.36-6.4q0-1.73.9-6.08l3.39-17.28h-3.78l.26-1.92q7.68-2.3 15.1-7.94h3.07l-1.53 6.98h4.99l-.58 2.88h-4.92l-3.27 17.28q-.83 3.97-.83 5.31 0 3.07 2.69 3.71-.64 2.18-2.95 3.46-2.3 1.28-5.56 1.28-3.27 0-5.12-2.05-1.86-2.05-1.86-5.63zm24.61 4.48q-1.51-1.66-2.18-4.29-.67-2.62-.67-6.91t1.47-8.19q1.47-3.91 4.16-6.72 5.51-5.89 14.59-5.89 3.27 0 5.64 1.09l10.94-1.09-4.74 24.96q-.19.77-.19 2.18 0 1.4.87 2.3.86.9 2.14 1.02-.64 2.18-2.98 3.46-2.33 1.28-4.96 1.28-2.62 0-4.38-.99-1.76-.99-2.27-2.66-1.03 1.6-3.2 2.63-2.18 1.02-5.09 1.02-2.91 0-5.28-.77t-3.87-2.43zm13.5-25.98q-.73 1.15-1.37 3.1-.64 1.95-1.7 7.17-1.06 5.21-1.06 8.93 0 3.71.58 4.8.58 1.08 1.6 1.08 2.05 0 3.55-1.95 1.51-1.95 2.08-5.41l3.39-18.75q-1.34-1.15-2.91-1.15t-2.49.51q-.93.51-1.67 1.67zm70.5 14.65q1.66 1.22 1.66 3.81t-1.12 4.42q-1.12 1.82-3.29 3.23-4.68 3.01-12.84 3.01t-12.6-4.26q-4.45-4.26-4.45-11.81 0-10.69 5.57-18.81 4.22-6.02 11.77-8.58 3.91-1.28 7.75-1.28t6.2.51q2.37.51 4.16 1.54 3.91 2.24 3.91 5.82 0 3.27-3.07 5.7-2.82 2.17-5.12 2.17-2.31 0-3.27-.32.26-2.3.26-3.8 0-1.51-.07-2.6-.06-1.08-.38-2.11-.64-2.37-2.59-2.37-1.95 0-3.91 1.83-1.95 1.82-3.61 4.89-3.78 6.98-3.78 15.24 0 3.96 2.24 6.24 2.24 2.27 7.04 2.27 3.59 0 6.98-2.37 1.47-1.02 2.56-2.37zm22.27 9.73q-1.98 4.8-8.32 4.8-3.2 0-5.25-2.24-1.66-1.86-1.66-3.97 0-4.8 2.24-15.29l4.67-24.58 12.99-1.28-6.21 32.38q-1.08 4.74-1.08 6.4 0 3.65 2.62 3.78zm19.39 4.8q-14.08 0-14.08-13.25 0-9.41 5.19-15.49 5.5-6.46 15.04-6.46 6.91 0 10.43 3.2 3.52 3.2 3.52 9.92 0 10.24-5.51 16.19-5.37 5.89-14.59 5.89zm1.67-27.84q-.77 1.73-1.38 4.32-.61 2.59-1.38 6.69-.76 4.09-.76 9.15 0 1.66.54 2.75t2.02 1.09q1.47 0 2.4-.7.92-.71 1.63-2.37 1.28-2.95 2.3-8.42 1.03-5.47 1.12-7.84.1-2.37.1-4.13 0-1.76-.51-2.91-.52-1.15-1.96-1.15t-2.4.9q-.96.89-1.72 2.62zm42.75 23.87q-3.07 3.97-10.69 3.97-3.97 0-6.85-2.4-2.88-2.4-2.88-5.86 0-1.92.19-2.88l4.29-22.78 12.99-1.28-4.67 24.7q-.25 1.41-.25 2.24 0 3.72 2.24 3.72 2.49 0 4.28-3.4.58-1.08.84-2.49l4.54-23.49 12.61-1.28-4.74 24.96q-.19.96-.19 1.98 0 1.03.58 2.15.57 1.12 2.43 1.37-.39 1.54-1.73 2.56-2.82 2.18-5.86 2.18-3.04 0-4.83-1.09t-2.3-2.88zm40-31.23q2.3 0 4.09.51.07-.25.2-.96l.32-1.98q.25-1.28.64-3.39l1.02-5.06 12.74-1.28-7.11 37.12q-.06.38-.06 1.02v1.03q0 1.41.7 2.46.71 1.06 1.86 1.06-1.28 3.01-5.19 4.29-1.34.38-3.23.38t-3.61-.99q-1.73-.99-2.24-2.66Q361.15-.7 359.1.29q-2.04.99-5.02.99-2.98 0-5.44-.77-2.46-.77-4-2.43-2.82-3.26-2.82-10.69 0-9.6 5.64-15.42 5.63-5.89 14.59-5.89zm-.45 3.84q-2.37 0-3.65 2.56-1.28 2.56-2.59 8.9-1.31 6.33-1.31 12.03 0 3.9 2.3 3.9 2.05 0 3.49-2.05 1.44-2.04 2.02-5.44l3.45-18.75q-1.34-1.15-3.71-1.15z" fill="url(#editing-gradow-gradient)" transform="translate(59.884 98.992)"/></g><style></style></svg>